# xmcd
#
# Track frame offsets:
#	150
#	21491
#	44696
#	66274
#	87634
#	111836
#	130983
#	149641
#	168732
#	191035
#	209062
#	228896
#	246180
#	267453
#
# Disc length: 3872 seconds
#
# Revision: 4
# Processed by: cddbd v1.5.2PL0 Copyright (c) Steve Scherf et al.
# Submitted via: EasyCDDAExtractor 16.0.9.1
#
DISCID=e80f1e0e
DTITLE=Minh Tuyết -  Sao Anh Ra Đi
DYEAR=2006
DGENRE=Pop
TTITLE0=Minh Tuyết - Bến Yêu Xưa Em Vẫn Chờ
TTITLE1=Minh Tuyết - Đêm Nghe Tiếng Mưa
TTITLE2=Minh Tuyết - Giấc Mơ Kỷ Niệm
TTITLE3=Minh Tuyết - Hãy Về Đây Bên Em
TTITLE4=Minh Tuyết, Huy Vũ - Không Thể Chia Xa
TTITLE5=Minh Tuyết - Tình Đắng
TTITLE6=Minh Tuyết - Vắng Anh... Nhớ Anh Rất Nhiều
TTITLE7=Minh Tuyết - Em Sẽ Là Người Ra Đi
TTITLE8=Minh Tuyết - Lại Một Lần Nữa
TTITLE9=Minh Tuyết - Sao Anh Ra Đi
TTITLE10=Minh Tuyết - Dẫu Có Muộn Màng
TTITLE11=Minh Tuyết, Cẩm Ly - Đã Xa Cuộc Tình
TTITLE12=Karaoke - Bến Yêu Xưa Em Vẫn Chờ (Karaoke)
TTITLE13=Karaoke - Đêm Nghe Tiếng Mưa (Karaoke)
EXTD=YEAR: 2006
EXTT0=
EXTT1=
EXTT2=
EXTT3=
EXTT4=
EXTT5=
EXTT6=
EXTT7=
EXTT8=
EXTT9=
EXTT10=
EXTT11=
EXTT12=
EXTT13=
PLAYORDER=
